<mxfile host="app.diagrams.net" modified="2024-07-22T11:44:52.927Z" agent="Mozilla/5.0 (X11; Linux x86_64) AppleWebKit/537.36 (KHTML, like Gecko) Chrome/126.0.0.0 Safari/537.36 Edg/126.0.0.0" etag="BLgd150IOmriG51BfjWP" version="24.7.1" type="device">
  <diagram name="Page-1" id="2YBvvXClWsGukQMizWep">
    <mxGraphModel dx="1512" dy="390" grid="1" gridSize="10" guides="1" tooltips="1" connect="1" arrows="1" fold="1" page="1" pageScale="1" pageWidth="850" pageHeight="1100" math="0" shadow="0">
      <root>
        <mxCell id="0" />
        <mxCell id="1" parent="0" />
        <mxCell id="pxj7KAtR6Jrmdoh74nm6-29" style="edgeStyle=elbowEdgeStyle;rounded=0;orthogonalLoop=1;jettySize=auto;html=1;elbow=horizontal;curved=0;entryX=0;entryY=0;entryDx=0;entryDy=0;" parent="1" target="pxj7KAtR6Jrmdoh74nm6-37" edge="1">
          <mxGeometry relative="1" as="geometry">
            <mxPoint x="70.02380952380963" y="120" as="sourcePoint" />
            <mxPoint x="335" y="40" as="targetPoint" />
            <Array as="points">
              <mxPoint x="150" y="80" />
            </Array>
          </mxGeometry>
        </mxCell>
        <mxCell id="pxj7KAtR6Jrmdoh74nm6-30" value="AddCity()" style="edgeLabel;html=1;align=center;verticalAlign=middle;resizable=0;points=[];" parent="pxj7KAtR6Jrmdoh74nm6-29" vertex="1" connectable="0">
          <mxGeometry x="0.635" y="-2" relative="1" as="geometry">
            <mxPoint as="offset" />
          </mxGeometry>
        </mxCell>
        <mxCell id="pxj7KAtR6Jrmdoh74nm6-4" value="main" style="shape=umlLifeline;perimeter=lifelinePerimeter;whiteSpace=wrap;html=1;container=0;dropTarget=0;collapsible=0;recursiveResize=0;outlineConnect=0;portConstraint=eastwest;newEdgeStyle={&quot;edgeStyle&quot;:&quot;elbowEdgeStyle&quot;,&quot;elbow&quot;:&quot;vertical&quot;,&quot;curved&quot;:0,&quot;rounded&quot;:0};fillColor=#dae8fc;strokeColor=#000000;fontStyle=1" parent="1" vertex="1">
          <mxGeometry x="20" y="50" width="100" height="1130" as="geometry" />
        </mxCell>
        <mxCell id="pxj7KAtR6Jrmdoh74nm6-6" value="MainWindow" style="shape=umlLifeline;perimeter=lifelinePerimeter;whiteSpace=wrap;html=1;container=0;dropTarget=0;collapsible=0;recursiveResize=0;outlineConnect=0;portConstraint=eastwest;newEdgeStyle={&quot;edgeStyle&quot;:&quot;elbowEdgeStyle&quot;,&quot;elbow&quot;:&quot;vertical&quot;,&quot;curved&quot;:0,&quot;rounded&quot;:0};fillColor=#dae8fc;strokeColor=#000000;fontStyle=1" parent="1" vertex="1">
          <mxGeometry x="160" y="50" width="100" height="1130" as="geometry" />
        </mxCell>
        <mxCell id="pxj7KAtR6Jrmdoh74nm6-10" value="Cities" style="shape=umlLifeline;perimeter=lifelinePerimeter;whiteSpace=wrap;html=1;container=0;dropTarget=0;collapsible=0;recursiveResize=0;outlineConnect=0;portConstraint=eastwest;newEdgeStyle={&quot;edgeStyle&quot;:&quot;elbowEdgeStyle&quot;,&quot;elbow&quot;:&quot;vertical&quot;,&quot;curved&quot;:0,&quot;rounded&quot;:0};fillColor=#dae8fc;strokeColor=#000000;fontStyle=1" parent="1" vertex="1">
          <mxGeometry x="290" y="50" width="100" height="1120" as="geometry" />
        </mxCell>
        <mxCell id="pxj7KAtR6Jrmdoh74nm6-14" value="Actor" style="shape=umlActor;verticalLabelPosition=bottom;verticalAlign=top;html=1;outlineConnect=0;fontStyle=1" parent="1" vertex="1">
          <mxGeometry x="-70" y="30" width="30" height="60" as="geometry" />
        </mxCell>
        <mxCell id="pxj7KAtR6Jrmdoh74nm6-17" value="DataInterface" style="shape=umlLifeline;perimeter=lifelinePerimeter;whiteSpace=wrap;html=1;container=0;dropTarget=0;collapsible=0;recursiveResize=0;outlineConnect=0;portConstraint=eastwest;newEdgeStyle={&quot;edgeStyle&quot;:&quot;elbowEdgeStyle&quot;,&quot;elbow&quot;:&quot;vertical&quot;,&quot;curved&quot;:0,&quot;rounded&quot;:0};fillColor=#dae8fc;strokeColor=#000000;fontStyle=1" parent="1" vertex="1">
          <mxGeometry x="440" y="50" width="100" height="1120" as="geometry" />
        </mxCell>
        <mxCell id="pxj7KAtR6Jrmdoh74nm6-19" value="CurlInterface" style="shape=umlLifeline;perimeter=lifelinePerimeter;whiteSpace=wrap;html=1;container=0;dropTarget=0;collapsible=0;recursiveResize=0;outlineConnect=0;portConstraint=eastwest;newEdgeStyle={&quot;edgeStyle&quot;:&quot;elbowEdgeStyle&quot;,&quot;elbow&quot;:&quot;vertical&quot;,&quot;curved&quot;:0,&quot;rounded&quot;:0};fillColor=#dae8fc;strokeColor=#000000;fontStyle=1" parent="1" vertex="1">
          <mxGeometry x="600" y="50" width="100" height="1110" as="geometry" />
        </mxCell>
        <mxCell id="pxj7KAtR6Jrmdoh74nm6-21" value="RapidjasonInterface" style="shape=umlLifeline;perimeter=lifelinePerimeter;whiteSpace=wrap;html=1;container=0;dropTarget=0;collapsible=0;recursiveResize=0;outlineConnect=0;portConstraint=eastwest;newEdgeStyle={&quot;edgeStyle&quot;:&quot;elbowEdgeStyle&quot;,&quot;elbow&quot;:&quot;vertical&quot;,&quot;curved&quot;:0,&quot;rounded&quot;:0};fillColor=#dae8fc;strokeColor=#000000;fontStyle=1" parent="1" vertex="1">
          <mxGeometry x="730" y="50" width="130" height="1130" as="geometry" />
        </mxCell>
        <mxCell id="pxj7KAtR6Jrmdoh74nm6-23" value="" style="endArrow=none;dashed=1;html=1;strokeWidth=1;rounded=0;" parent="1" edge="1" source="dXEII69Fd5C7IKYdCOXC-20">
          <mxGeometry width="50" height="50" relative="1" as="geometry">
            <mxPoint x="-60" y="956.551724137931" as="sourcePoint" />
            <mxPoint x="-55.5" y="120" as="targetPoint" />
          </mxGeometry>
        </mxCell>
        <mxCell id="pxj7KAtR6Jrmdoh74nm6-31" style="edgeStyle=elbowEdgeStyle;rounded=0;orthogonalLoop=1;jettySize=auto;html=1;elbow=vertical;curved=0;entryX=0;entryY=0;entryDx=0;entryDy=0;" parent="1" target="pxj7KAtR6Jrmdoh74nm6-35" edge="1">
          <mxGeometry relative="1" as="geometry">
            <mxPoint x="75.00034482758605" y="149.99999999999994" as="sourcePoint" />
            <mxPoint x="340.1" y="150" as="targetPoint" />
            <Array as="points" />
          </mxGeometry>
        </mxCell>
        <mxCell id="pxj7KAtR6Jrmdoh74nm6-32" value="AddCity()" style="edgeLabel;html=1;align=center;verticalAlign=middle;resizable=0;points=[];" parent="pxj7KAtR6Jrmdoh74nm6-31" vertex="1" connectable="0">
          <mxGeometry x="0.635" y="-2" relative="1" as="geometry">
            <mxPoint as="offset" />
          </mxGeometry>
        </mxCell>
        <mxCell id="pxj7KAtR6Jrmdoh74nm6-35" value="" style="rounded=0;whiteSpace=wrap;html=1;fillColor=#f5f5f5;fontColor=#333333;strokeColor=#666666;" parent="1" vertex="1">
          <mxGeometry x="335" y="150" width="10" height="20" as="geometry" />
        </mxCell>
        <mxCell id="pxj7KAtR6Jrmdoh74nm6-37" value="" style="rounded=0;whiteSpace=wrap;html=1;fillColor=#f5f5f5;fontColor=#333333;strokeColor=#666666;" parent="1" vertex="1">
          <mxGeometry x="335" y="120" width="10" height="20" as="geometry" />
        </mxCell>
        <mxCell id="pxj7KAtR6Jrmdoh74nm6-38" style="edgeStyle=elbowEdgeStyle;rounded=0;orthogonalLoop=1;jettySize=auto;html=1;elbow=horizontal;curved=0;entryX=0;entryY=0;entryDx=0;entryDy=0;" parent="1" target="pxj7KAtR6Jrmdoh74nm6-41" edge="1">
          <mxGeometry relative="1" as="geometry">
            <mxPoint x="70.02380952380963" y="180" as="sourcePoint" />
            <mxPoint x="335" y="100" as="targetPoint" />
            <Array as="points">
              <mxPoint x="150" y="140" />
            </Array>
          </mxGeometry>
        </mxCell>
        <mxCell id="pxj7KAtR6Jrmdoh74nm6-39" value="AddCity()" style="edgeLabel;html=1;align=center;verticalAlign=middle;resizable=0;points=[];" parent="pxj7KAtR6Jrmdoh74nm6-38" vertex="1" connectable="0">
          <mxGeometry x="0.635" y="-2" relative="1" as="geometry">
            <mxPoint as="offset" />
          </mxGeometry>
        </mxCell>
        <mxCell id="pxj7KAtR6Jrmdoh74nm6-41" value="" style="rounded=0;whiteSpace=wrap;html=1;fillColor=#f5f5f5;fontColor=#333333;strokeColor=#666666;" parent="1" vertex="1">
          <mxGeometry x="335" y="180" width="10" height="20" as="geometry" />
        </mxCell>
        <mxCell id="pxj7KAtR6Jrmdoh74nm6-42" value="" style="rounded=0;whiteSpace=wrap;html=1;fillColor=#f5f5f5;fontColor=#333333;strokeColor=#666666;" parent="1" vertex="1">
          <mxGeometry x="65" y="120" width="10" height="570" as="geometry" />
        </mxCell>
        <mxCell id="pxj7KAtR6Jrmdoh74nm6-43" value="" style="endArrow=classic;html=1;rounded=0;entryX=0;entryY=0;entryDx=0;entryDy=0;exitX=1.18;exitY=0.193;exitDx=0;exitDy=0;exitPerimeter=0;" parent="1" source="pxj7KAtR6Jrmdoh74nm6-42" target="pxj7KAtR6Jrmdoh74nm6-44" edge="1">
          <mxGeometry width="50" height="50" relative="1" as="geometry">
            <mxPoint x="110" y="260" as="sourcePoint" />
            <mxPoint x="150" y="210" as="targetPoint" />
          </mxGeometry>
        </mxCell>
        <mxCell id="dXEII69Fd5C7IKYdCOXC-24" value="MainWindow w" style="edgeLabel;html=1;align=center;verticalAlign=middle;resizable=0;points=[];" vertex="1" connectable="0" parent="pxj7KAtR6Jrmdoh74nm6-43">
          <mxGeometry x="-0.0899" y="-1" relative="1" as="geometry">
            <mxPoint as="offset" />
          </mxGeometry>
        </mxCell>
        <mxCell id="pxj7KAtR6Jrmdoh74nm6-44" value="" style="rounded=0;whiteSpace=wrap;html=1;fillColor=#f5f5f5;fontColor=#333333;strokeColor=#666666;" parent="1" vertex="1">
          <mxGeometry x="205" y="230" width="10" height="460" as="geometry" />
        </mxCell>
        <mxCell id="pxj7KAtR6Jrmdoh74nm6-45" value="" style="rounded=0;whiteSpace=wrap;html=1;fillColor=#f5f5f5;fontColor=#333333;strokeColor=#666666;" parent="1" vertex="1">
          <mxGeometry x="335" y="250" width="10" height="20" as="geometry" />
        </mxCell>
        <mxCell id="pxj7KAtR6Jrmdoh74nm6-46" value="" style="endArrow=classic;html=1;rounded=0;entryX=0;entryY=0;entryDx=0;entryDy=0;exitX=0.91;exitY=0.047;exitDx=0;exitDy=0;exitPerimeter=0;" parent="1" source="pxj7KAtR6Jrmdoh74nm6-44" target="pxj7KAtR6Jrmdoh74nm6-45" edge="1">
          <mxGeometry width="50" height="50" relative="1" as="geometry">
            <mxPoint x="220" y="250" as="sourcePoint" />
            <mxPoint x="290" y="230" as="targetPoint" />
          </mxGeometry>
        </mxCell>
        <mxCell id="dXEII69Fd5C7IKYdCOXC-1" value="GetCitiesQList()" style="edgeLabel;html=1;align=center;verticalAlign=middle;resizable=0;points=[];" vertex="1" connectable="0" parent="pxj7KAtR6Jrmdoh74nm6-46">
          <mxGeometry x="-0.0536" y="2" relative="1" as="geometry">
            <mxPoint as="offset" />
          </mxGeometry>
        </mxCell>
        <mxCell id="pxj7KAtR6Jrmdoh74nm6-47" value="" style="endArrow=classic;html=1;rounded=0;exitX=0;exitY=1;exitDx=0;exitDy=0;dashed=1;entryX=0.814;entryY=0.089;entryDx=0;entryDy=0;entryPerimeter=0;" parent="1" source="pxj7KAtR6Jrmdoh74nm6-45" target="pxj7KAtR6Jrmdoh74nm6-44" edge="1">
          <mxGeometry width="50" height="50" relative="1" as="geometry">
            <mxPoint x="330" y="270" as="sourcePoint" />
            <mxPoint x="220" y="270" as="targetPoint" />
          </mxGeometry>
        </mxCell>
        <mxCell id="dXEII69Fd5C7IKYdCOXC-2" value="citieslist" style="edgeLabel;html=1;align=center;verticalAlign=middle;resizable=0;points=[];" vertex="1" connectable="0" parent="pxj7KAtR6Jrmdoh74nm6-47">
          <mxGeometry x="0.0924" y="-2" relative="1" as="geometry">
            <mxPoint as="offset" />
          </mxGeometry>
        </mxCell>
        <mxCell id="pxj7KAtR6Jrmdoh74nm6-48" value="" style="rounded=0;whiteSpace=wrap;html=1;fillColor=#f5f5f5;fontColor=#333333;strokeColor=#666666;" parent="1" vertex="1">
          <mxGeometry x="335" y="290" width="10" height="20" as="geometry" />
        </mxCell>
        <mxCell id="pxj7KAtR6Jrmdoh74nm6-49" value="" style="endArrow=classic;html=1;rounded=0;entryX=0;entryY=0;entryDx=0;entryDy=0;exitX=1;exitY=0.25;exitDx=0;exitDy=0;" parent="1" edge="1">
          <mxGeometry width="50" height="50" relative="1" as="geometry">
            <mxPoint x="215" y="290" as="sourcePoint" />
            <mxPoint x="335" y="290" as="targetPoint" />
          </mxGeometry>
        </mxCell>
        <mxCell id="dXEII69Fd5C7IKYdCOXC-3" value="GetAxis()" style="edgeLabel;html=1;align=center;verticalAlign=middle;resizable=0;points=[];" vertex="1" connectable="0" parent="pxj7KAtR6Jrmdoh74nm6-49">
          <mxGeometry x="-0.119" y="1" relative="1" as="geometry">
            <mxPoint as="offset" />
          </mxGeometry>
        </mxCell>
        <mxCell id="pxj7KAtR6Jrmdoh74nm6-50" value="" style="endArrow=classic;html=1;rounded=0;exitX=0;exitY=1;exitDx=0;exitDy=0;entryX=1;entryY=0.5;entryDx=0;entryDy=0;dashed=1;" parent="1" edge="1">
          <mxGeometry width="50" height="50" relative="1" as="geometry">
            <mxPoint x="335" y="309.52" as="sourcePoint" />
            <mxPoint x="215" y="309.52" as="targetPoint" />
          </mxGeometry>
        </mxCell>
        <mxCell id="dXEII69Fd5C7IKYdCOXC-4" value="axis" style="edgeLabel;html=1;align=center;verticalAlign=middle;resizable=0;points=[];" vertex="1" connectable="0" parent="pxj7KAtR6Jrmdoh74nm6-50">
          <mxGeometry x="0.1857" y="1" relative="1" as="geometry">
            <mxPoint x="6" y="-1" as="offset" />
          </mxGeometry>
        </mxCell>
        <mxCell id="pxj7KAtR6Jrmdoh74nm6-51" value="" style="rounded=0;whiteSpace=wrap;html=1;fillColor=#f5f5f5;fontColor=#333333;strokeColor=#666666;" parent="1" vertex="1">
          <mxGeometry x="485" y="330" width="10" height="20" as="geometry" />
        </mxCell>
        <mxCell id="pxj7KAtR6Jrmdoh74nm6-52" value="" style="endArrow=classic;html=1;rounded=0;entryX=0;entryY=0;entryDx=0;entryDy=0;exitX=1.005;exitY=0.217;exitDx=0;exitDy=0;exitPerimeter=0;" parent="1" source="pxj7KAtR6Jrmdoh74nm6-44" target="pxj7KAtR6Jrmdoh74nm6-51" edge="1">
          <mxGeometry width="50" height="50" relative="1" as="geometry">
            <mxPoint x="220" y="330" as="sourcePoint" />
            <mxPoint x="290" y="330" as="targetPoint" />
          </mxGeometry>
        </mxCell>
        <mxCell id="dXEII69Fd5C7IKYdCOXC-5" value="std::make_shared&amp;lt;Data&amp;gt;()" style="edgeLabel;html=1;align=center;verticalAlign=middle;resizable=0;points=[];" vertex="1" connectable="0" parent="pxj7KAtR6Jrmdoh74nm6-52">
          <mxGeometry x="0.0051" y="1" relative="1" as="geometry">
            <mxPoint as="offset" />
          </mxGeometry>
        </mxCell>
        <mxCell id="pxj7KAtR6Jrmdoh74nm6-53" value="" style="rounded=0;whiteSpace=wrap;html=1;fillColor=#f5f5f5;fontColor=#333333;strokeColor=#666666;" parent="1" vertex="1">
          <mxGeometry x="645" y="360" width="10" height="20" as="geometry" />
        </mxCell>
        <mxCell id="pxj7KAtR6Jrmdoh74nm6-54" value="" style="endArrow=classic;html=1;rounded=0;entryX=0;entryY=0;entryDx=0;entryDy=0;" parent="1" target="pxj7KAtR6Jrmdoh74nm6-53" edge="1">
          <mxGeometry width="50" height="50" relative="1" as="geometry">
            <mxPoint x="215" y="360" as="sourcePoint" />
            <mxPoint x="295" y="360" as="targetPoint" />
          </mxGeometry>
        </mxCell>
        <mxCell id="dXEII69Fd5C7IKYdCOXC-8" value="std::make_shared&amp;lt;Curl&amp;gt;(Lat, Long, data)" style="edgeLabel;html=1;align=center;verticalAlign=middle;resizable=0;points=[];" vertex="1" connectable="0" parent="pxj7KAtR6Jrmdoh74nm6-54">
          <mxGeometry x="0.5553" y="-1" relative="1" as="geometry">
            <mxPoint x="-29" y="-1" as="offset" />
          </mxGeometry>
        </mxCell>
        <mxCell id="pxj7KAtR6Jrmdoh74nm6-55" value="" style="rounded=0;whiteSpace=wrap;html=1;fillColor=#f5f5f5;fontColor=#333333;strokeColor=#666666;" parent="1" vertex="1">
          <mxGeometry x="645" y="390" width="10" height="20" as="geometry" />
        </mxCell>
        <mxCell id="pxj7KAtR6Jrmdoh74nm6-56" value="" style="rounded=0;whiteSpace=wrap;html=1;fillColor=#f5f5f5;fontColor=#333333;strokeColor=#666666;" parent="1" vertex="1">
          <mxGeometry x="645" y="420" width="10" height="20" as="geometry" />
        </mxCell>
        <mxCell id="pxj7KAtR6Jrmdoh74nm6-57" value="" style="rounded=0;whiteSpace=wrap;html=1;fillColor=#f5f5f5;fontColor=#333333;strokeColor=#666666;" parent="1" vertex="1">
          <mxGeometry x="645" y="450" width="10" height="20" as="geometry" />
        </mxCell>
        <mxCell id="pxj7KAtR6Jrmdoh74nm6-58" value="" style="endArrow=classic;html=1;rounded=0;entryX=0;entryY=0;entryDx=0;entryDy=0;" parent="1" edge="1">
          <mxGeometry width="50" height="50" relative="1" as="geometry">
            <mxPoint x="215" y="390" as="sourcePoint" />
            <mxPoint x="645" y="390" as="targetPoint" />
          </mxGeometry>
        </mxCell>
        <mxCell id="pxj7KAtR6Jrmdoh74nm6-62" value="Curl_Init()" style="edgeLabel;html=1;align=center;verticalAlign=middle;resizable=0;points=[];" parent="pxj7KAtR6Jrmdoh74nm6-58" vertex="1" connectable="0">
          <mxGeometry x="0.3566" relative="1" as="geometry">
            <mxPoint x="23" as="offset" />
          </mxGeometry>
        </mxCell>
        <mxCell id="pxj7KAtR6Jrmdoh74nm6-59" value="" style="endArrow=classic;html=1;rounded=0;entryX=0;entryY=0;entryDx=0;entryDy=0;" parent="1" edge="1">
          <mxGeometry width="50" height="50" relative="1" as="geometry">
            <mxPoint x="215" y="420" as="sourcePoint" />
            <mxPoint x="645" y="420" as="targetPoint" />
          </mxGeometry>
        </mxCell>
        <mxCell id="pxj7KAtR6Jrmdoh74nm6-63" value="Curl_Setup()" style="edgeLabel;html=1;align=center;verticalAlign=middle;resizable=0;points=[];" parent="pxj7KAtR6Jrmdoh74nm6-59" vertex="1" connectable="0">
          <mxGeometry x="0.4775" y="1" relative="1" as="geometry">
            <mxPoint as="offset" />
          </mxGeometry>
        </mxCell>
        <mxCell id="pxj7KAtR6Jrmdoh74nm6-60" value="" style="endArrow=classic;html=1;rounded=0;entryX=0;entryY=0;entryDx=0;entryDy=0;" parent="1" edge="1">
          <mxGeometry width="50" height="50" relative="1" as="geometry">
            <mxPoint x="215" y="450" as="sourcePoint" />
            <mxPoint x="645" y="450" as="targetPoint" />
          </mxGeometry>
        </mxCell>
        <mxCell id="pxj7KAtR6Jrmdoh74nm6-64" value="Curl_Preform()" style="edgeLabel;html=1;align=center;verticalAlign=middle;resizable=0;points=[];" parent="pxj7KAtR6Jrmdoh74nm6-60" vertex="1" connectable="0">
          <mxGeometry x="0.476" relative="1" as="geometry">
            <mxPoint as="offset" />
          </mxGeometry>
        </mxCell>
        <mxCell id="pxj7KAtR6Jrmdoh74nm6-61" value="" style="rounded=0;whiteSpace=wrap;html=1;fillColor=#f5f5f5;fontColor=#333333;strokeColor=#666666;" parent="1" vertex="1">
          <mxGeometry x="790" y="480" width="10" height="20" as="geometry" />
        </mxCell>
        <mxCell id="pxj7KAtR6Jrmdoh74nm6-65" value="" style="endArrow=classic;html=1;rounded=0;exitX=1.1;exitY=0.543;exitDx=0;exitDy=0;exitPerimeter=0;entryX=0;entryY=0;entryDx=0;entryDy=0;" parent="1" source="pxj7KAtR6Jrmdoh74nm6-44" target="pxj7KAtR6Jrmdoh74nm6-61" edge="1">
          <mxGeometry width="50" height="50" relative="1" as="geometry">
            <mxPoint x="260" y="530" as="sourcePoint" />
            <mxPoint x="310" y="480" as="targetPoint" />
          </mxGeometry>
        </mxCell>
        <mxCell id="dXEII69Fd5C7IKYdCOXC-11" value="std::make_shared&amp;lt;Rapidjson&amp;gt;(data-&amp;gt;GetResponse())" style="edgeLabel;html=1;align=center;verticalAlign=middle;resizable=0;points=[];" vertex="1" connectable="0" parent="pxj7KAtR6Jrmdoh74nm6-65">
          <mxGeometry x="-0.3395" relative="1" as="geometry">
            <mxPoint as="offset" />
          </mxGeometry>
        </mxCell>
        <mxCell id="pxj7KAtR6Jrmdoh74nm6-66" value="" style="rounded=0;whiteSpace=wrap;html=1;fillColor=#f5f5f5;fontColor=#333333;strokeColor=#666666;" parent="1" vertex="1">
          <mxGeometry x="790" y="510" width="10" height="20" as="geometry" />
        </mxCell>
        <mxCell id="pxj7KAtR6Jrmdoh74nm6-67" value="" style="endArrow=classic;html=1;rounded=0;exitX=1.033;exitY=0.695;exitDx=0;exitDy=0;exitPerimeter=0;entryX=0;entryY=0;entryDx=0;entryDy=0;" parent="1" edge="1">
          <mxGeometry width="50" height="50" relative="1" as="geometry">
            <mxPoint x="215" y="510" as="sourcePoint" />
            <mxPoint x="790" y="510" as="targetPoint" />
          </mxGeometry>
        </mxCell>
        <mxCell id="pxj7KAtR6Jrmdoh74nm6-79" value="json-&amp;gt;GetTemperature()" style="edgeLabel;html=1;align=center;verticalAlign=middle;resizable=0;points=[];" parent="pxj7KAtR6Jrmdoh74nm6-67" vertex="1" connectable="0">
          <mxGeometry x="-0.4036" y="-1" relative="1" as="geometry">
            <mxPoint as="offset" />
          </mxGeometry>
        </mxCell>
        <mxCell id="pxj7KAtR6Jrmdoh74nm6-68" value="" style="endArrow=classic;html=1;rounded=0;exitX=0;exitY=1;exitDx=0;exitDy=0;entryX=1.243;entryY=0.653;entryDx=0;entryDy=0;entryPerimeter=0;dashed=1;" parent="1" source="pxj7KAtR6Jrmdoh74nm6-66" target="pxj7KAtR6Jrmdoh74nm6-44" edge="1">
          <mxGeometry width="50" height="50" relative="1" as="geometry">
            <mxPoint x="700" y="590" as="sourcePoint" />
            <mxPoint x="219.33333333333334" y="530" as="targetPoint" />
          </mxGeometry>
        </mxCell>
        <mxCell id="dXEII69Fd5C7IKYdCOXC-14" value="weather" style="edgeLabel;html=1;align=center;verticalAlign=middle;resizable=0;points=[];" vertex="1" connectable="0" parent="pxj7KAtR6Jrmdoh74nm6-68">
          <mxGeometry x="0.4366" y="1" relative="1" as="geometry">
            <mxPoint as="offset" />
          </mxGeometry>
        </mxCell>
        <mxCell id="pxj7KAtR6Jrmdoh74nm6-73" value="" style="rounded=0;whiteSpace=wrap;html=1;fillColor=#f5f5f5;fontColor=#333333;strokeColor=#666666;" parent="1" vertex="1">
          <mxGeometry x="790" y="550" width="10" height="20" as="geometry" />
        </mxCell>
        <mxCell id="pxj7KAtR6Jrmdoh74nm6-74" value="" style="endArrow=classic;html=1;rounded=0;exitX=1.033;exitY=0.695;exitDx=0;exitDy=0;exitPerimeter=0;entryX=0;entryY=0;entryDx=0;entryDy=0;" parent="1" edge="1">
          <mxGeometry width="50" height="50" relative="1" as="geometry">
            <mxPoint x="215" y="550" as="sourcePoint" />
            <mxPoint x="790" y="550" as="targetPoint" />
          </mxGeometry>
        </mxCell>
        <mxCell id="pxj7KAtR6Jrmdoh74nm6-80" value="json-&amp;gt;GetDate()" style="edgeLabel;html=1;align=center;verticalAlign=middle;resizable=0;points=[];" parent="pxj7KAtR6Jrmdoh74nm6-74" vertex="1" connectable="0">
          <mxGeometry x="-0.4284" y="1" relative="1" as="geometry">
            <mxPoint as="offset" />
          </mxGeometry>
        </mxCell>
        <mxCell id="pxj7KAtR6Jrmdoh74nm6-75" value="" style="endArrow=classic;html=1;rounded=0;exitX=0;exitY=1;exitDx=0;exitDy=0;entryX=1;entryY=0.833;entryDx=0;entryDy=0;entryPerimeter=0;dashed=1;" parent="1" source="pxj7KAtR6Jrmdoh74nm6-73" edge="1">
          <mxGeometry width="50" height="50" relative="1" as="geometry">
            <mxPoint x="700" y="630" as="sourcePoint" />
            <mxPoint x="215" y="570" as="targetPoint" />
          </mxGeometry>
        </mxCell>
        <mxCell id="dXEII69Fd5C7IKYdCOXC-15" value="Date" style="edgeLabel;html=1;align=center;verticalAlign=middle;resizable=0;points=[];" vertex="1" connectable="0" parent="pxj7KAtR6Jrmdoh74nm6-75">
          <mxGeometry x="0.4425" y="-1" relative="1" as="geometry">
            <mxPoint as="offset" />
          </mxGeometry>
        </mxCell>
        <mxCell id="pxj7KAtR6Jrmdoh74nm6-76" value="" style="rounded=0;whiteSpace=wrap;html=1;fillColor=#f5f5f5;fontColor=#333333;strokeColor=#666666;" parent="1" vertex="1">
          <mxGeometry x="790" y="589.52" width="10" height="20" as="geometry" />
        </mxCell>
        <mxCell id="pxj7KAtR6Jrmdoh74nm6-77" value="" style="endArrow=classic;html=1;rounded=0;exitX=1.033;exitY=0.695;exitDx=0;exitDy=0;exitPerimeter=0;entryX=0;entryY=0;entryDx=0;entryDy=0;" parent="1" edge="1">
          <mxGeometry width="50" height="50" relative="1" as="geometry">
            <mxPoint x="215" y="589.52" as="sourcePoint" />
            <mxPoint x="790" y="589.52" as="targetPoint" />
          </mxGeometry>
        </mxCell>
        <mxCell id="pxj7KAtR6Jrmdoh74nm6-81" value="json-&amp;gt;GetMaxForcastTemp()" style="edgeLabel;html=1;align=center;verticalAlign=middle;resizable=0;points=[];" parent="pxj7KAtR6Jrmdoh74nm6-77" vertex="1" connectable="0">
          <mxGeometry x="-0.4417" y="1" relative="1" as="geometry">
            <mxPoint as="offset" />
          </mxGeometry>
        </mxCell>
        <mxCell id="pxj7KAtR6Jrmdoh74nm6-78" value="" style="endArrow=classic;html=1;rounded=0;exitX=0;exitY=1;exitDx=0;exitDy=0;entryX=1;entryY=0.833;entryDx=0;entryDy=0;entryPerimeter=0;dashed=1;" parent="1" source="pxj7KAtR6Jrmdoh74nm6-76" edge="1">
          <mxGeometry width="50" height="50" relative="1" as="geometry">
            <mxPoint x="700" y="669.52" as="sourcePoint" />
            <mxPoint x="215" y="609.52" as="targetPoint" />
          </mxGeometry>
        </mxCell>
        <mxCell id="dXEII69Fd5C7IKYdCOXC-16" value="Maxtemp" style="edgeLabel;html=1;align=center;verticalAlign=middle;resizable=0;points=[];" vertex="1" connectable="0" parent="pxj7KAtR6Jrmdoh74nm6-78">
          <mxGeometry x="0.4504" y="-1" relative="1" as="geometry">
            <mxPoint as="offset" />
          </mxGeometry>
        </mxCell>
        <mxCell id="pxj7KAtR6Jrmdoh74nm6-82" value="" style="rounded=0;whiteSpace=wrap;html=1;fillColor=#f5f5f5;fontColor=#333333;strokeColor=#666666;" parent="1" vertex="1">
          <mxGeometry x="790" y="630" width="10" height="20" as="geometry" />
        </mxCell>
        <mxCell id="pxj7KAtR6Jrmdoh74nm6-83" value="" style="endArrow=classic;html=1;rounded=0;exitX=1.033;exitY=0.695;exitDx=0;exitDy=0;exitPerimeter=0;entryX=0;entryY=0;entryDx=0;entryDy=0;" parent="1" edge="1">
          <mxGeometry width="50" height="50" relative="1" as="geometry">
            <mxPoint x="215" y="630" as="sourcePoint" />
            <mxPoint x="790" y="630" as="targetPoint" />
          </mxGeometry>
        </mxCell>
        <mxCell id="pxj7KAtR6Jrmdoh74nm6-84" value="json-&amp;gt;GetMinForcastTemp()" style="edgeLabel;html=1;align=center;verticalAlign=middle;resizable=0;points=[];" parent="pxj7KAtR6Jrmdoh74nm6-83" vertex="1" connectable="0">
          <mxGeometry x="-0.4417" y="1" relative="1" as="geometry">
            <mxPoint as="offset" />
          </mxGeometry>
        </mxCell>
        <mxCell id="pxj7KAtR6Jrmdoh74nm6-85" value="" style="endArrow=classic;html=1;rounded=0;exitX=0;exitY=1;exitDx=0;exitDy=0;entryX=1;entryY=0.833;entryDx=0;entryDy=0;entryPerimeter=0;dashed=1;" parent="1" source="pxj7KAtR6Jrmdoh74nm6-82" edge="1">
          <mxGeometry width="50" height="50" relative="1" as="geometry">
            <mxPoint x="700" y="710" as="sourcePoint" />
            <mxPoint x="215" y="650" as="targetPoint" />
          </mxGeometry>
        </mxCell>
        <mxCell id="dXEII69Fd5C7IKYdCOXC-17" value="Mintemp" style="edgeLabel;html=1;align=center;verticalAlign=middle;resizable=0;points=[];" vertex="1" connectable="0" parent="pxj7KAtR6Jrmdoh74nm6-85">
          <mxGeometry x="0.4564" relative="1" as="geometry">
            <mxPoint as="offset" />
          </mxGeometry>
        </mxCell>
        <mxCell id="pxj7KAtR6Jrmdoh74nm6-91" value="" style="rounded=0;whiteSpace=wrap;html=1;fillColor=#f5f5f5;fontColor=#333333;strokeColor=#666666;" parent="1" vertex="1">
          <mxGeometry x="790" y="669.31" width="10" height="20" as="geometry" />
        </mxCell>
        <mxCell id="pxj7KAtR6Jrmdoh74nm6-92" value="" style="endArrow=classic;html=1;rounded=0;exitX=1.033;exitY=0.695;exitDx=0;exitDy=0;exitPerimeter=0;entryX=0;entryY=0;entryDx=0;entryDy=0;" parent="1" edge="1">
          <mxGeometry width="50" height="50" relative="1" as="geometry">
            <mxPoint x="215" y="669.31" as="sourcePoint" />
            <mxPoint x="790" y="669.31" as="targetPoint" />
          </mxGeometry>
        </mxCell>
        <mxCell id="pxj7KAtR6Jrmdoh74nm6-93" value="json-&amp;gt;GetForcastDate()" style="edgeLabel;html=1;align=center;verticalAlign=middle;resizable=0;points=[];" parent="pxj7KAtR6Jrmdoh74nm6-92" vertex="1" connectable="0">
          <mxGeometry x="-0.4417" y="1" relative="1" as="geometry">
            <mxPoint as="offset" />
          </mxGeometry>
        </mxCell>
        <mxCell id="pxj7KAtR6Jrmdoh74nm6-94" value="" style="endArrow=classic;html=1;rounded=0;exitX=0;exitY=1;exitDx=0;exitDy=0;entryX=1;entryY=0.833;entryDx=0;entryDy=0;entryPerimeter=0;dashed=1;" parent="1" source="pxj7KAtR6Jrmdoh74nm6-91" edge="1">
          <mxGeometry width="50" height="50" relative="1" as="geometry">
            <mxPoint x="700" y="749.31" as="sourcePoint" />
            <mxPoint x="215" y="689.31" as="targetPoint" />
          </mxGeometry>
        </mxCell>
        <mxCell id="dXEII69Fd5C7IKYdCOXC-18" value="Dates" style="edgeLabel;html=1;align=center;verticalAlign=middle;resizable=0;points=[];" vertex="1" connectable="0" parent="pxj7KAtR6Jrmdoh74nm6-94">
          <mxGeometry x="0.4663" y="-1" relative="1" as="geometry">
            <mxPoint as="offset" />
          </mxGeometry>
        </mxCell>
        <mxCell id="dXEII69Fd5C7IKYdCOXC-6" value="" style="endArrow=classic;html=1;rounded=0;entryX=1;entryY=0.261;entryDx=0;entryDy=0;entryPerimeter=0;dashed=1;" edge="1" parent="1" target="pxj7KAtR6Jrmdoh74nm6-44">
          <mxGeometry width="50" height="50" relative="1" as="geometry">
            <mxPoint x="485" y="350" as="sourcePoint" />
            <mxPoint x="210" y="350" as="targetPoint" />
          </mxGeometry>
        </mxCell>
        <mxCell id="dXEII69Fd5C7IKYdCOXC-7" value="std::shared_ptr&amp;lt;Data&amp;gt;&amp;nbsp;&amp;nbsp;data" style="edgeLabel;html=1;align=center;verticalAlign=middle;resizable=0;points=[];" vertex="1" connectable="0" parent="dXEII69Fd5C7IKYdCOXC-6">
          <mxGeometry x="0.0163" y="-1" relative="1" as="geometry">
            <mxPoint as="offset" />
          </mxGeometry>
        </mxCell>
        <mxCell id="dXEII69Fd5C7IKYdCOXC-9" value="" style="endArrow=classic;html=1;rounded=0;entryX=1.143;entryY=0.325;entryDx=0;entryDy=0;entryPerimeter=0;dashed=1;" edge="1" parent="1" target="pxj7KAtR6Jrmdoh74nm6-44">
          <mxGeometry width="50" height="50" relative="1" as="geometry">
            <mxPoint x="645" y="380" as="sourcePoint" />
            <mxPoint x="575.0999999999999" y="380" as="targetPoint" />
          </mxGeometry>
        </mxCell>
        <mxCell id="dXEII69Fd5C7IKYdCOXC-10" value="std::shared_ptr&amp;lt;Curl&amp;gt; curlobj" style="edgeLabel;html=1;align=center;verticalAlign=middle;resizable=0;points=[];" vertex="1" connectable="0" parent="dXEII69Fd5C7IKYdCOXC-9">
          <mxGeometry x="-0.4265" y="-1" relative="1" as="geometry">
            <mxPoint as="offset" />
          </mxGeometry>
        </mxCell>
        <mxCell id="dXEII69Fd5C7IKYdCOXC-12" value="" style="endArrow=classic;html=1;rounded=0;entryX=1.086;entryY=0.59;entryDx=0;entryDy=0;entryPerimeter=0;dashed=1;" edge="1" parent="1" target="pxj7KAtR6Jrmdoh74nm6-44">
          <mxGeometry width="50" height="50" relative="1" as="geometry">
            <mxPoint x="790" y="500" as="sourcePoint" />
            <mxPoint x="739.9285714285713" y="500" as="targetPoint" />
          </mxGeometry>
        </mxCell>
        <mxCell id="dXEII69Fd5C7IKYdCOXC-13" value="std::shared_ptr&amp;lt;Rapidjson&amp;gt; json" style="edgeLabel;html=1;align=center;verticalAlign=middle;resizable=0;points=[];" vertex="1" connectable="0" parent="dXEII69Fd5C7IKYdCOXC-12">
          <mxGeometry x="0.4208" y="-1" relative="1" as="geometry">
            <mxPoint as="offset" />
          </mxGeometry>
        </mxCell>
        <mxCell id="dXEII69Fd5C7IKYdCOXC-21" value="" style="endArrow=none;dashed=1;html=1;strokeWidth=1;rounded=0;" edge="1" parent="1" target="dXEII69Fd5C7IKYdCOXC-20">
          <mxGeometry width="50" height="50" relative="1" as="geometry">
            <mxPoint x="-55" y="1191" as="sourcePoint" />
            <mxPoint x="-55.5" y="120" as="targetPoint" />
          </mxGeometry>
        </mxCell>
        <mxCell id="dXEII69Fd5C7IKYdCOXC-20" value="" style="rounded=0;whiteSpace=wrap;html=1;fillColor=#f5f5f5;fontColor=#333333;strokeColor=#666666;" vertex="1" parent="1">
          <mxGeometry x="-60" y="720" width="10" height="20" as="geometry" />
        </mxCell>
        <mxCell id="dXEII69Fd5C7IKYdCOXC-22" value="" style="endArrow=classic;html=1;rounded=0;exitX=1;exitY=0;exitDx=0;exitDy=0;entryX=0;entryY=0;entryDx=0;entryDy=0;" edge="1" parent="1" source="dXEII69Fd5C7IKYdCOXC-20" target="dXEII69Fd5C7IKYdCOXC-25">
          <mxGeometry width="50" height="50" relative="1" as="geometry">
            <mxPoint x="10" y="760" as="sourcePoint" />
            <mxPoint x="200" y="720" as="targetPoint" />
          </mxGeometry>
        </mxCell>
        <mxCell id="dXEII69Fd5C7IKYdCOXC-23" value="MainWindow::on_pushButton_clicked()" style="edgeLabel;html=1;align=center;verticalAlign=middle;resizable=0;points=[];" vertex="1" connectable="0" parent="dXEII69Fd5C7IKYdCOXC-22">
          <mxGeometry x="-0.5512" y="1" relative="1" as="geometry">
            <mxPoint x="66" y="1" as="offset" />
          </mxGeometry>
        </mxCell>
        <mxCell id="dXEII69Fd5C7IKYdCOXC-25" value="" style="rounded=0;whiteSpace=wrap;html=1;fillColor=#f5f5f5;fontColor=#333333;strokeColor=#666666;" vertex="1" parent="1">
          <mxGeometry x="205" y="720" width="10" height="420" as="geometry" />
        </mxCell>
        <mxCell id="dXEII69Fd5C7IKYdCOXC-31" value="" style="rounded=0;whiteSpace=wrap;html=1;fillColor=#f5f5f5;fontColor=#333333;strokeColor=#666666;" vertex="1" parent="1">
          <mxGeometry x="335" y="739.69" width="10" height="20" as="geometry" />
        </mxCell>
        <mxCell id="dXEII69Fd5C7IKYdCOXC-32" value="" style="endArrow=classic;html=1;rounded=0;entryX=0;entryY=0;entryDx=0;entryDy=0;exitX=1;exitY=0.25;exitDx=0;exitDy=0;" edge="1" parent="1">
          <mxGeometry width="50" height="50" relative="1" as="geometry">
            <mxPoint x="215" y="739.69" as="sourcePoint" />
            <mxPoint x="335" y="739.69" as="targetPoint" />
          </mxGeometry>
        </mxCell>
        <mxCell id="dXEII69Fd5C7IKYdCOXC-33" value="GetAxis()" style="edgeLabel;html=1;align=center;verticalAlign=middle;resizable=0;points=[];" vertex="1" connectable="0" parent="dXEII69Fd5C7IKYdCOXC-32">
          <mxGeometry x="-0.119" y="1" relative="1" as="geometry">
            <mxPoint as="offset" />
          </mxGeometry>
        </mxCell>
        <mxCell id="dXEII69Fd5C7IKYdCOXC-34" value="" style="endArrow=classic;html=1;rounded=0;exitX=0;exitY=1;exitDx=0;exitDy=0;entryX=1;entryY=0.5;entryDx=0;entryDy=0;dashed=1;" edge="1" parent="1">
          <mxGeometry width="50" height="50" relative="1" as="geometry">
            <mxPoint x="335" y="759.21" as="sourcePoint" />
            <mxPoint x="215" y="759.21" as="targetPoint" />
          </mxGeometry>
        </mxCell>
        <mxCell id="dXEII69Fd5C7IKYdCOXC-35" value="axis" style="edgeLabel;html=1;align=center;verticalAlign=middle;resizable=0;points=[];" vertex="1" connectable="0" parent="dXEII69Fd5C7IKYdCOXC-34">
          <mxGeometry x="0.1857" y="1" relative="1" as="geometry">
            <mxPoint x="6" y="-1" as="offset" />
          </mxGeometry>
        </mxCell>
        <mxCell id="dXEII69Fd5C7IKYdCOXC-36" value="" style="rounded=0;whiteSpace=wrap;html=1;fillColor=#f5f5f5;fontColor=#333333;strokeColor=#666666;" vertex="1" parent="1">
          <mxGeometry x="485" y="779.69" width="10" height="20" as="geometry" />
        </mxCell>
        <mxCell id="dXEII69Fd5C7IKYdCOXC-37" value="" style="endArrow=classic;html=1;rounded=0;entryX=0;entryY=0;entryDx=0;entryDy=0;exitX=0.92;exitY=0.222;exitDx=0;exitDy=0;exitPerimeter=0;" edge="1" parent="1" target="dXEII69Fd5C7IKYdCOXC-36">
          <mxGeometry width="50" height="50" relative="1" as="geometry">
            <mxPoint x="214.20000000000005" y="781.81" as="sourcePoint" />
            <mxPoint x="290" y="779.69" as="targetPoint" />
          </mxGeometry>
        </mxCell>
        <mxCell id="dXEII69Fd5C7IKYdCOXC-38" value="std::make_shared&amp;lt;Data&amp;gt;()" style="edgeLabel;html=1;align=center;verticalAlign=middle;resizable=0;points=[];" vertex="1" connectable="0" parent="dXEII69Fd5C7IKYdCOXC-37">
          <mxGeometry x="0.0051" y="1" relative="1" as="geometry">
            <mxPoint as="offset" />
          </mxGeometry>
        </mxCell>
        <mxCell id="dXEII69Fd5C7IKYdCOXC-39" value="" style="rounded=0;whiteSpace=wrap;html=1;fillColor=#f5f5f5;fontColor=#333333;strokeColor=#666666;" vertex="1" parent="1">
          <mxGeometry x="645" y="809.69" width="10" height="20" as="geometry" />
        </mxCell>
        <mxCell id="dXEII69Fd5C7IKYdCOXC-40" value="" style="endArrow=classic;html=1;rounded=0;entryX=0;entryY=0;entryDx=0;entryDy=0;" edge="1" parent="1" target="dXEII69Fd5C7IKYdCOXC-39">
          <mxGeometry width="50" height="50" relative="1" as="geometry">
            <mxPoint x="215" y="809.69" as="sourcePoint" />
            <mxPoint x="295" y="809.69" as="targetPoint" />
          </mxGeometry>
        </mxCell>
        <mxCell id="dXEII69Fd5C7IKYdCOXC-41" value="std::make_shared&amp;lt;Curl&amp;gt;(Lat, Long, data)" style="edgeLabel;html=1;align=center;verticalAlign=middle;resizable=0;points=[];" vertex="1" connectable="0" parent="dXEII69Fd5C7IKYdCOXC-40">
          <mxGeometry x="0.5553" y="-1" relative="1" as="geometry">
            <mxPoint x="-29" y="-1" as="offset" />
          </mxGeometry>
        </mxCell>
        <mxCell id="dXEII69Fd5C7IKYdCOXC-42" value="" style="rounded=0;whiteSpace=wrap;html=1;fillColor=#f5f5f5;fontColor=#333333;strokeColor=#666666;" vertex="1" parent="1">
          <mxGeometry x="645" y="839.69" width="10" height="20" as="geometry" />
        </mxCell>
        <mxCell id="dXEII69Fd5C7IKYdCOXC-43" value="" style="rounded=0;whiteSpace=wrap;html=1;fillColor=#f5f5f5;fontColor=#333333;strokeColor=#666666;" vertex="1" parent="1">
          <mxGeometry x="645" y="869.69" width="10" height="20" as="geometry" />
        </mxCell>
        <mxCell id="dXEII69Fd5C7IKYdCOXC-44" value="" style="rounded=0;whiteSpace=wrap;html=1;fillColor=#f5f5f5;fontColor=#333333;strokeColor=#666666;" vertex="1" parent="1">
          <mxGeometry x="645" y="899.69" width="10" height="20" as="geometry" />
        </mxCell>
        <mxCell id="dXEII69Fd5C7IKYdCOXC-45" value="" style="endArrow=classic;html=1;rounded=0;entryX=0;entryY=0;entryDx=0;entryDy=0;" edge="1" parent="1">
          <mxGeometry width="50" height="50" relative="1" as="geometry">
            <mxPoint x="215" y="839.69" as="sourcePoint" />
            <mxPoint x="645" y="839.69" as="targetPoint" />
          </mxGeometry>
        </mxCell>
        <mxCell id="dXEII69Fd5C7IKYdCOXC-46" value="Curl_Init()" style="edgeLabel;html=1;align=center;verticalAlign=middle;resizable=0;points=[];" vertex="1" connectable="0" parent="dXEII69Fd5C7IKYdCOXC-45">
          <mxGeometry x="0.3566" relative="1" as="geometry">
            <mxPoint x="23" as="offset" />
          </mxGeometry>
        </mxCell>
        <mxCell id="dXEII69Fd5C7IKYdCOXC-47" value="" style="endArrow=classic;html=1;rounded=0;entryX=0;entryY=0;entryDx=0;entryDy=0;" edge="1" parent="1">
          <mxGeometry width="50" height="50" relative="1" as="geometry">
            <mxPoint x="215" y="869.69" as="sourcePoint" />
            <mxPoint x="645" y="869.69" as="targetPoint" />
          </mxGeometry>
        </mxCell>
        <mxCell id="dXEII69Fd5C7IKYdCOXC-48" value="Curl_Setup()" style="edgeLabel;html=1;align=center;verticalAlign=middle;resizable=0;points=[];" vertex="1" connectable="0" parent="dXEII69Fd5C7IKYdCOXC-47">
          <mxGeometry x="0.4775" y="1" relative="1" as="geometry">
            <mxPoint as="offset" />
          </mxGeometry>
        </mxCell>
        <mxCell id="dXEII69Fd5C7IKYdCOXC-49" value="" style="endArrow=classic;html=1;rounded=0;entryX=0;entryY=0;entryDx=0;entryDy=0;" edge="1" parent="1">
          <mxGeometry width="50" height="50" relative="1" as="geometry">
            <mxPoint x="215" y="899.69" as="sourcePoint" />
            <mxPoint x="645" y="899.69" as="targetPoint" />
          </mxGeometry>
        </mxCell>
        <mxCell id="dXEII69Fd5C7IKYdCOXC-50" value="Curl_Preform()" style="edgeLabel;html=1;align=center;verticalAlign=middle;resizable=0;points=[];" vertex="1" connectable="0" parent="dXEII69Fd5C7IKYdCOXC-49">
          <mxGeometry x="0.476" relative="1" as="geometry">
            <mxPoint as="offset" />
          </mxGeometry>
        </mxCell>
        <mxCell id="dXEII69Fd5C7IKYdCOXC-51" value="" style="rounded=0;whiteSpace=wrap;html=1;fillColor=#f5f5f5;fontColor=#333333;strokeColor=#666666;" vertex="1" parent="1">
          <mxGeometry x="790" y="929.69" width="10" height="20" as="geometry" />
        </mxCell>
        <mxCell id="dXEII69Fd5C7IKYdCOXC-52" value="" style="endArrow=classic;html=1;rounded=0;exitX=1;exitY=0.547;exitDx=0;exitDy=0;exitPerimeter=0;entryX=0;entryY=0;entryDx=0;entryDy=0;" edge="1" parent="1" target="dXEII69Fd5C7IKYdCOXC-51">
          <mxGeometry width="50" height="50" relative="1" as="geometry">
            <mxPoint x="215" y="931.3100000000002" as="sourcePoint" />
            <mxPoint x="310" y="929.69" as="targetPoint" />
          </mxGeometry>
        </mxCell>
        <mxCell id="dXEII69Fd5C7IKYdCOXC-53" value="std::make_shared&amp;lt;Rapidjson&amp;gt;(data-&amp;gt;GetResponse())" style="edgeLabel;html=1;align=center;verticalAlign=middle;resizable=0;points=[];" vertex="1" connectable="0" parent="dXEII69Fd5C7IKYdCOXC-52">
          <mxGeometry x="-0.3395" relative="1" as="geometry">
            <mxPoint as="offset" />
          </mxGeometry>
        </mxCell>
        <mxCell id="dXEII69Fd5C7IKYdCOXC-54" value="" style="rounded=0;whiteSpace=wrap;html=1;fillColor=#f5f5f5;fontColor=#333333;strokeColor=#666666;" vertex="1" parent="1">
          <mxGeometry x="790" y="959.69" width="10" height="20" as="geometry" />
        </mxCell>
        <mxCell id="dXEII69Fd5C7IKYdCOXC-55" value="" style="endArrow=classic;html=1;rounded=0;exitX=1.033;exitY=0.695;exitDx=0;exitDy=0;exitPerimeter=0;entryX=0;entryY=0;entryDx=0;entryDy=0;" edge="1" parent="1">
          <mxGeometry width="50" height="50" relative="1" as="geometry">
            <mxPoint x="215" y="959.69" as="sourcePoint" />
            <mxPoint x="790" y="959.69" as="targetPoint" />
          </mxGeometry>
        </mxCell>
        <mxCell id="dXEII69Fd5C7IKYdCOXC-56" value="json-&amp;gt;GetTemperature()" style="edgeLabel;html=1;align=center;verticalAlign=middle;resizable=0;points=[];" vertex="1" connectable="0" parent="dXEII69Fd5C7IKYdCOXC-55">
          <mxGeometry x="-0.4036" y="-1" relative="1" as="geometry">
            <mxPoint as="offset" />
          </mxGeometry>
        </mxCell>
        <mxCell id="dXEII69Fd5C7IKYdCOXC-57" value="" style="endArrow=classic;html=1;rounded=0;exitX=0;exitY=1;exitDx=0;exitDy=0;dashed=1;" edge="1" parent="1" source="dXEII69Fd5C7IKYdCOXC-54">
          <mxGeometry width="50" height="50" relative="1" as="geometry">
            <mxPoint x="700" y="1039.69" as="sourcePoint" />
            <mxPoint x="216" y="979.69" as="targetPoint" />
          </mxGeometry>
        </mxCell>
        <mxCell id="dXEII69Fd5C7IKYdCOXC-58" value="weather" style="edgeLabel;html=1;align=center;verticalAlign=middle;resizable=0;points=[];" vertex="1" connectable="0" parent="dXEII69Fd5C7IKYdCOXC-57">
          <mxGeometry x="0.4366" y="1" relative="1" as="geometry">
            <mxPoint as="offset" />
          </mxGeometry>
        </mxCell>
        <mxCell id="dXEII69Fd5C7IKYdCOXC-59" value="" style="rounded=0;whiteSpace=wrap;html=1;fillColor=#f5f5f5;fontColor=#333333;strokeColor=#666666;" vertex="1" parent="1">
          <mxGeometry x="790" y="999.69" width="10" height="20" as="geometry" />
        </mxCell>
        <mxCell id="dXEII69Fd5C7IKYdCOXC-60" value="" style="endArrow=classic;html=1;rounded=0;exitX=1.033;exitY=0.695;exitDx=0;exitDy=0;exitPerimeter=0;entryX=0;entryY=0;entryDx=0;entryDy=0;" edge="1" parent="1">
          <mxGeometry width="50" height="50" relative="1" as="geometry">
            <mxPoint x="215" y="999.69" as="sourcePoint" />
            <mxPoint x="790" y="999.69" as="targetPoint" />
          </mxGeometry>
        </mxCell>
        <mxCell id="dXEII69Fd5C7IKYdCOXC-61" value="json-&amp;gt;GetDate()" style="edgeLabel;html=1;align=center;verticalAlign=middle;resizable=0;points=[];" vertex="1" connectable="0" parent="dXEII69Fd5C7IKYdCOXC-60">
          <mxGeometry x="-0.4284" y="1" relative="1" as="geometry">
            <mxPoint as="offset" />
          </mxGeometry>
        </mxCell>
        <mxCell id="dXEII69Fd5C7IKYdCOXC-62" value="" style="endArrow=classic;html=1;rounded=0;exitX=0;exitY=1;exitDx=0;exitDy=0;entryX=1;entryY=0.833;entryDx=0;entryDy=0;entryPerimeter=0;dashed=1;" edge="1" parent="1" source="dXEII69Fd5C7IKYdCOXC-59">
          <mxGeometry width="50" height="50" relative="1" as="geometry">
            <mxPoint x="700" y="1079.69" as="sourcePoint" />
            <mxPoint x="215" y="1019.69" as="targetPoint" />
          </mxGeometry>
        </mxCell>
        <mxCell id="dXEII69Fd5C7IKYdCOXC-63" value="Date" style="edgeLabel;html=1;align=center;verticalAlign=middle;resizable=0;points=[];" vertex="1" connectable="0" parent="dXEII69Fd5C7IKYdCOXC-62">
          <mxGeometry x="0.4425" y="-1" relative="1" as="geometry">
            <mxPoint as="offset" />
          </mxGeometry>
        </mxCell>
        <mxCell id="dXEII69Fd5C7IKYdCOXC-64" value="" style="rounded=0;whiteSpace=wrap;html=1;fillColor=#f5f5f5;fontColor=#333333;strokeColor=#666666;" vertex="1" parent="1">
          <mxGeometry x="790" y="1039.21" width="10" height="20" as="geometry" />
        </mxCell>
        <mxCell id="dXEII69Fd5C7IKYdCOXC-65" value="" style="endArrow=classic;html=1;rounded=0;exitX=1.033;exitY=0.695;exitDx=0;exitDy=0;exitPerimeter=0;entryX=0;entryY=0;entryDx=0;entryDy=0;" edge="1" parent="1">
          <mxGeometry width="50" height="50" relative="1" as="geometry">
            <mxPoint x="215" y="1039.21" as="sourcePoint" />
            <mxPoint x="790" y="1039.21" as="targetPoint" />
          </mxGeometry>
        </mxCell>
        <mxCell id="dXEII69Fd5C7IKYdCOXC-66" value="json-&amp;gt;GetMaxForcastTemp()" style="edgeLabel;html=1;align=center;verticalAlign=middle;resizable=0;points=[];" vertex="1" connectable="0" parent="dXEII69Fd5C7IKYdCOXC-65">
          <mxGeometry x="-0.4417" y="1" relative="1" as="geometry">
            <mxPoint as="offset" />
          </mxGeometry>
        </mxCell>
        <mxCell id="dXEII69Fd5C7IKYdCOXC-67" value="" style="endArrow=classic;html=1;rounded=0;exitX=0;exitY=1;exitDx=0;exitDy=0;entryX=1;entryY=0.833;entryDx=0;entryDy=0;entryPerimeter=0;dashed=1;" edge="1" parent="1" source="dXEII69Fd5C7IKYdCOXC-64">
          <mxGeometry width="50" height="50" relative="1" as="geometry">
            <mxPoint x="700" y="1119.21" as="sourcePoint" />
            <mxPoint x="215" y="1059.21" as="targetPoint" />
          </mxGeometry>
        </mxCell>
        <mxCell id="dXEII69Fd5C7IKYdCOXC-68" value="Maxtemp" style="edgeLabel;html=1;align=center;verticalAlign=middle;resizable=0;points=[];" vertex="1" connectable="0" parent="dXEII69Fd5C7IKYdCOXC-67">
          <mxGeometry x="0.4504" y="-1" relative="1" as="geometry">
            <mxPoint as="offset" />
          </mxGeometry>
        </mxCell>
        <mxCell id="dXEII69Fd5C7IKYdCOXC-69" value="" style="rounded=0;whiteSpace=wrap;html=1;fillColor=#f5f5f5;fontColor=#333333;strokeColor=#666666;" vertex="1" parent="1">
          <mxGeometry x="790" y="1079.69" width="10" height="20" as="geometry" />
        </mxCell>
        <mxCell id="dXEII69Fd5C7IKYdCOXC-70" value="" style="endArrow=classic;html=1;rounded=0;exitX=1.033;exitY=0.695;exitDx=0;exitDy=0;exitPerimeter=0;entryX=0;entryY=0;entryDx=0;entryDy=0;" edge="1" parent="1">
          <mxGeometry width="50" height="50" relative="1" as="geometry">
            <mxPoint x="215" y="1079.69" as="sourcePoint" />
            <mxPoint x="790" y="1079.69" as="targetPoint" />
          </mxGeometry>
        </mxCell>
        <mxCell id="dXEII69Fd5C7IKYdCOXC-71" value="json-&amp;gt;GetMinForcastTemp()" style="edgeLabel;html=1;align=center;verticalAlign=middle;resizable=0;points=[];" vertex="1" connectable="0" parent="dXEII69Fd5C7IKYdCOXC-70">
          <mxGeometry x="-0.4417" y="1" relative="1" as="geometry">
            <mxPoint as="offset" />
          </mxGeometry>
        </mxCell>
        <mxCell id="dXEII69Fd5C7IKYdCOXC-72" value="" style="endArrow=classic;html=1;rounded=0;exitX=0;exitY=1;exitDx=0;exitDy=0;entryX=1;entryY=0.833;entryDx=0;entryDy=0;entryPerimeter=0;dashed=1;" edge="1" parent="1" source="dXEII69Fd5C7IKYdCOXC-69">
          <mxGeometry width="50" height="50" relative="1" as="geometry">
            <mxPoint x="700" y="1159.69" as="sourcePoint" />
            <mxPoint x="215" y="1099.69" as="targetPoint" />
          </mxGeometry>
        </mxCell>
        <mxCell id="dXEII69Fd5C7IKYdCOXC-73" value="Mintemp" style="edgeLabel;html=1;align=center;verticalAlign=middle;resizable=0;points=[];" vertex="1" connectable="0" parent="dXEII69Fd5C7IKYdCOXC-72">
          <mxGeometry x="0.4564" relative="1" as="geometry">
            <mxPoint as="offset" />
          </mxGeometry>
        </mxCell>
        <mxCell id="dXEII69Fd5C7IKYdCOXC-74" value="" style="rounded=0;whiteSpace=wrap;html=1;fillColor=#f5f5f5;fontColor=#333333;strokeColor=#666666;" vertex="1" parent="1">
          <mxGeometry x="790" y="1119" width="10" height="20" as="geometry" />
        </mxCell>
        <mxCell id="dXEII69Fd5C7IKYdCOXC-75" value="" style="endArrow=classic;html=1;rounded=0;exitX=1.033;exitY=0.695;exitDx=0;exitDy=0;exitPerimeter=0;entryX=0;entryY=0;entryDx=0;entryDy=0;" edge="1" parent="1">
          <mxGeometry width="50" height="50" relative="1" as="geometry">
            <mxPoint x="215" y="1119" as="sourcePoint" />
            <mxPoint x="790" y="1119" as="targetPoint" />
          </mxGeometry>
        </mxCell>
        <mxCell id="dXEII69Fd5C7IKYdCOXC-76" value="json-&amp;gt;GetForcastDate()" style="edgeLabel;html=1;align=center;verticalAlign=middle;resizable=0;points=[];" vertex="1" connectable="0" parent="dXEII69Fd5C7IKYdCOXC-75">
          <mxGeometry x="-0.4417" y="1" relative="1" as="geometry">
            <mxPoint as="offset" />
          </mxGeometry>
        </mxCell>
        <mxCell id="dXEII69Fd5C7IKYdCOXC-77" value="" style="endArrow=classic;html=1;rounded=0;exitX=0;exitY=1;exitDx=0;exitDy=0;entryX=1;entryY=0.833;entryDx=0;entryDy=0;entryPerimeter=0;dashed=1;" edge="1" parent="1" source="dXEII69Fd5C7IKYdCOXC-74">
          <mxGeometry width="50" height="50" relative="1" as="geometry">
            <mxPoint x="700" y="1199" as="sourcePoint" />
            <mxPoint x="215" y="1139" as="targetPoint" />
          </mxGeometry>
        </mxCell>
        <mxCell id="dXEII69Fd5C7IKYdCOXC-78" value="Dates" style="edgeLabel;html=1;align=center;verticalAlign=middle;resizable=0;points=[];" vertex="1" connectable="0" parent="dXEII69Fd5C7IKYdCOXC-77">
          <mxGeometry x="0.4663" y="-1" relative="1" as="geometry">
            <mxPoint as="offset" />
          </mxGeometry>
        </mxCell>
        <mxCell id="dXEII69Fd5C7IKYdCOXC-79" value="" style="endArrow=classic;html=1;rounded=0;dashed=1;" edge="1" parent="1">
          <mxGeometry width="50" height="50" relative="1" as="geometry">
            <mxPoint x="485" y="799.69" as="sourcePoint" />
            <mxPoint x="216" y="799.69" as="targetPoint" />
          </mxGeometry>
        </mxCell>
        <mxCell id="dXEII69Fd5C7IKYdCOXC-80" value="std::shared_ptr&amp;lt;Data&amp;gt;&amp;nbsp;&amp;nbsp;data" style="edgeLabel;html=1;align=center;verticalAlign=middle;resizable=0;points=[];" vertex="1" connectable="0" parent="dXEII69Fd5C7IKYdCOXC-79">
          <mxGeometry x="0.0163" y="-1" relative="1" as="geometry">
            <mxPoint as="offset" />
          </mxGeometry>
        </mxCell>
        <mxCell id="dXEII69Fd5C7IKYdCOXC-81" value="" style="endArrow=classic;html=1;rounded=0;entryX=1;entryY=0.322;entryDx=0;entryDy=0;entryPerimeter=0;dashed=1;" edge="1" parent="1">
          <mxGeometry width="50" height="50" relative="1" as="geometry">
            <mxPoint x="645" y="829.69" as="sourcePoint" />
            <mxPoint x="215" y="827.81" as="targetPoint" />
          </mxGeometry>
        </mxCell>
        <mxCell id="dXEII69Fd5C7IKYdCOXC-82" value="std::shared_ptr&amp;lt;Curl&amp;gt; curlobj" style="edgeLabel;html=1;align=center;verticalAlign=middle;resizable=0;points=[];" vertex="1" connectable="0" parent="dXEII69Fd5C7IKYdCOXC-81">
          <mxGeometry x="-0.4265" y="-1" relative="1" as="geometry">
            <mxPoint as="offset" />
          </mxGeometry>
        </mxCell>
        <mxCell id="dXEII69Fd5C7IKYdCOXC-83" value="" style="endArrow=classic;html=1;rounded=0;dashed=1;entryX=1.16;entryY=0.587;entryDx=0;entryDy=0;entryPerimeter=0;" edge="1" parent="1">
          <mxGeometry width="50" height="50" relative="1" as="geometry">
            <mxPoint x="790" y="949.69" as="sourcePoint" />
            <mxPoint x="216.5999999999999" y="949.71" as="targetPoint" />
          </mxGeometry>
        </mxCell>
        <mxCell id="dXEII69Fd5C7IKYdCOXC-84" value="std::shared_ptr&amp;lt;Rapidjson&amp;gt; json" style="edgeLabel;html=1;align=center;verticalAlign=middle;resizable=0;points=[];" vertex="1" connectable="0" parent="dXEII69Fd5C7IKYdCOXC-83">
          <mxGeometry x="0.4208" y="-1" relative="1" as="geometry">
            <mxPoint as="offset" />
          </mxGeometry>
        </mxCell>
      </root>
    </mxGraphModel>
  </diagram>
</mxfile>
